<svg xmlns="http://www.w3.org/2000/svg" width="600" height="100" viewBox="0 0 600 100">
    <rect width="600" height="100" fill="#ffffff"/>
    <g stroke="#FFF" stroke-miterlimit="10" stroke-width="0">
        <circle cx="0" cy="0" r="50" fill="#037B79"/>
        <circle cx="100" cy="0" r="50" fill="#92DEBA"/>
        <circle cx="200" cy="0" r="50" fill="#FFFFD8"/>
        <circle cx="300" cy="0" r="50" fill="#CAF2FF"/>
        <circle cx="400" cy="0" r="50" fill="#6FCCFF"/>
        <circle cx="500" cy="0" r="50" fill="#006EB4"/>
        <circle cx="600" cy="0" r="50" fill="#037B79"/>
        <circle cx="-50" cy="50" r="50"/>
        <circle cx="50" cy="50" r="50" fill="#53ac9a"/>
        <circle cx="150" cy="50" r="50" fill="#ceefc1"/>
        <circle cx="250" cy="50" r="50" fill="#ffffff"/>
        <circle cx="350" cy="50" r="50" fill="#9de0fe"/>
        <circle cx="450" cy="50" r="50" fill="#3e9cda"/>
        <circle cx="550" cy="50" r="50" fill="#00789c"/>
        <circle cx="650" cy="50" r="50"/>
        <circle cx="0" cy="100" r="50" fill="#037B79"/>
        <circle cx="100" cy="100" r="50" fill="#92DEBA"/>
        <circle cx="200" cy="100" r="50" fill="#FFFFD8"/>
        <circle cx="300" cy="100" r="50" fill="#CAF2FF"/>
        <circle cx="400" cy="100" r="50" fill="#6FCCFF"/>
        <circle cx="500" cy="100" r="50" fill="#006EB4"/>
        <circle cx="600" cy="100" r="50" fill="#037B79"/>
        <circle cx="50" cy="150" r="50"/>
        <circle cx="150" cy="150" r="50"/>
        <circle cx="250" cy="150" r="50"/>
        <circle cx="350" cy="150" r="50"/>
        <circle cx="450" cy="150" r="50"/>
        <circle cx="550" cy="150" r="50"/>
    </g>
</svg>
