<svg xmlns="http://www.w3.org/2000/svg" width="512pt" height="512pt" viewBox="-75 0 512 512">
    <defs>
        <filter id="blur_idxztzcbg">
            <feGaussianBlur in="SourceGraphic" stdDeviation="50"/>
        </filter>
    </defs>
    <g filter="url(#blur_idxztzcbg)">
        <path fill="#eceaec" d="m.00390625 8.523438 15.72656275 487.492187c.285156 8.910156 7.59375 15.984375 16.507812 15.984375h298.339844c8.914063 0 16.21875-7.074219 16.507813-15.984375l15.722656-487.492187c.152344-4.660157-3.585938-8.523438-8.253906-8.523438h-346.296876c-4.664062 0-8.402343 3.863281-8.25390575 8.523438zm0 0"/>
        <path fill="#dad8db" d="m98.554688 479.242188-7.984376-479.242188h-82.3125c-4.664062 0-8.402343 3.859375-8.25390575 8.523438l15.72656275 487.492187c.285156 8.910156 7.59375 15.984375 16.507812 15.984375h298.339844c8.914063 0 16.21875-7.074219 16.507813-15.984375l.015624-.53125h-232.03125c-9.015624 0-16.363281-7.226563-16.515624-16.242187zm0 0"/>
        <path fill="#c3ddff" d="m47.429688 470.710938h267.953124c8.914063 0 16.222657-7.074219 16.507813-15.984376l9.539063-295.636718c.171874-5.359375-4.746094-9.402344-10.003907-8.351563-22.15625 4.425781-29.679687 14.421875-63.460937 14.421875-43.347656 0-43.347656-16.515625-86.695313-16.515625-43.34375 0-43.34375 16.515625-86.691406 16.515625-33.800781 0-41.308594-10.011718-63.488281-14.433594-5.140625-1.027343-9.871094 3.167969-9.703125 8.40625l9.535156 295.59375c.289063 8.910157 7.59375 15.984376 16.507813 15.984376zm0 0"/>
        <path fill="#a4ccff" d="m47.429688 470.710938h50.984374l-5.09375-305.554688c-32.691406-.253906-40.339843-10.0625-62.230468-14.429688-5.140625-1.027343-9.871094 3.167969-9.703125 8.40625l9.535156 295.59375c.289063 8.910157 7.59375 15.984376 16.507813 15.984376zm0 0"/>
        <path fill="#fff" d="m156.632812 322.066406c0 9.121094-7.394531 16.515625-16.515624 16.515625-9.121094 0-16.515626-7.394531-16.515626-16.515625s7.394532-16.515625 16.515626-16.515625c9.121093 0 16.515624 7.394531 16.515624 16.515625zm0 0"/>
        <path fill="#dbeaff" d="m197.921875 235.355469c-6.828125 0-12.386719-5.554688-12.386719-12.386719s5.558594-12.386719 12.386719-12.386719c6.832031 0 12.386719 5.554688 12.386719 12.386719s-5.554688 12.386719-12.386719 12.386719zm0 0"/>
        <path fill="#c3ddff" d="m247.550781 313.804688c-4.5625 0-8.296875-3.695313-8.296875-8.257813 0-4.558594 3.652344-8.257813 8.21875-8.257813h.082032c4.5625 0 8.257812 3.699219 8.257812 8.257813-.003906 4.5625-3.695312 8.257813-8.261719 8.257813zm0 0"/>
        <path fill="#fff" d="m288.84375 214.710938c-4.566406 0-8.300781-3.699219-8.300781-8.257813 0-4.5625 3.65625-8.257813 8.21875-8.257813h.082031c4.566406 0 8.257812 3.695313 8.257812 8.257813 0 4.558594-3.695312 8.257813-8.257812 8.257813zm0 0"/>
        <path fill="#c3ddff" d="m74.09375 247.742188c-4.566406 0-8.300781-3.699219-8.300781-8.257813s3.65625-8.257813 8.21875-8.257813h.082031c4.566406 0 8.257812 3.699219 8.257812 8.257813s-3.695312 8.257813-8.257812 8.257813zm0 0"/>
    </g>
</svg>
