<svg xmlns="http://www.w3.org/2000/svg" xmlns:xlink="http://www.w3.org/1999/xlink" width="50" height="25" viewBox="0 0 50 25">
    <rect width="50" height="25" fill="#ffffff"/>
    <defs>
        <rect id="s" width="1" height="1" stroke="#ffffff" stroke-width="0.1"/>
        <pattern id="a" width="2" height="2" patternUnits="userSpaceOnUse">
            <g stroke="#ffffff" stroke-width="0.1">
                <rect width="1" height="1" fill="#fafafa"/>
                <rect width="1" height="1" x="1" y="1" fill="#ffffff"/>
                <rect width="1" height="1" y="1" fill="#f5f5f5"/>
                <rect width="1" height="1" x="1" fill="#f0f0f0"/>
            </g>
        </pattern>
        <pattern id="b" width="5" height="11" patternUnits="userSpaceOnUse">
            <g fill="#ebebeb">
                <use x="2" y="0" xlink:href="#s"/>
                <use x="4" y="1" xlink:href="#s"/>
                <use x="1" y="2" xlink:href="#s"/>
                <use x="2" y="4" xlink:href="#s"/>
                <use x="4" y="6" xlink:href="#s"/>
                <use x="0" y="8" xlink:href="#s"/>
                <use x="3" y="9" xlink:href="#s"/>
            </g>
        </pattern>
        <pattern id="c" width="7" height="7" patternUnits="userSpaceOnUse">
            <g fill="#e5e5e5">
                <use x="1" y="1" xlink:href="#s"/>
                <use x="3" y="4" xlink:href="#s"/>
                <use x="5" y="6" xlink:href="#s"/>
                <use x="0" y="3" xlink:href="#s"/>
            </g>
        </pattern>
        <pattern id="d" width="11" height="5" patternUnits="userSpaceOnUse">
            <g fill="#ffffff">
                <use x="1" y="1" xlink:href="#s"/>
                <use x="6" y="3" xlink:href="#s"/>
                <use x="8" y="2" xlink:href="#s"/>
                <use x="3" y="0" xlink:href="#s"/>
                <use x="0" y="3" xlink:href="#s"/>
            </g>
            <g fill="#e0e0e0">
                <use x="8" y="3" xlink:href="#s"/>
                <use x="4" y="2" xlink:href="#s"/>
                <use x="5" y="4" xlink:href="#s"/>
                <use x="10" y="0" xlink:href="#s"/>
            </g>
        </pattern>
        <pattern id="e" width="47" height="23" patternUnits="userSpaceOnUse">
            <g fill="#BA7">
                <use x="2" y="5" xlink:href="#s"/>
                <use x="23" y="13" xlink:href="#s"/>
                <use x="4" y="18" xlink:href="#s"/>
                <use x="35" y="9" xlink:href="#s"/>
            </g>
        </pattern>
        <pattern id="f" width="61" height="31" patternUnits="userSpaceOnUse">
            <g fill="#BA7">
                <use x="16" y="0" xlink:href="#s"/>
                <use x="13" y="22" xlink:href="#s"/>
                <use x="44" y="15" xlink:href="#s"/>
                <use x="12" y="11" xlink:href="#s"/>
            </g>
        </pattern>
    </defs>
    <rect width="50" height="25" fill="url(#a)"/>
    <rect width="50" height="25" fill="url(#b)"/>
    <rect width="50" height="25" fill="url(#c)"/>
    <rect width="50" height="25" fill="url(#d)"/>
    <rect width="50" height="25" fill="url(#e)"/>
    <rect width="50" height="25" fill="url(#f)"/>
</svg>
